# xmcd
#
# Track frame offsets:
#	150
#	18403
#	30193
#	45090
#	65761
#	81869
#	99896
#	113119
#	132268
#	152410
#	169907
#	187917
#	204181
#	220941
#	237987
#	253741
#	268065
#	281607
#	298029
#	302719
#	315454
#	328641
#	341190
#
# Disc length: 4769
#
# Revision: 2
# Processed by: cddbd v1.5.1PL0 Copyright (c) Steve Scherf et al.
# Submitted via: audiograbber 1.82.02
# Normalized: r1:DSETVAR2
#
DISCID=3f129f17
DTITLE=Various Artist - CDX 318 May 2003
DYEAR=2003
DGENRE=Country
TTITLE0=Billy Ray Cyrus - Back To Memphis
TTITLE1=John Michael Montgomery - Four Wheel Drive
TTITLE2=Chris Ledoux - Horsepower
TTITLE3=Lonestar - Im Already There
TTITLE4=Daryle Singletary - Kay
TTITLE5=Josh Turner - Long Black Train
TTITLE6=Kenny Chesney - No Shoes No Shirt No Problems
TTITLE7=Tim McGraw - Real Good Man
TTITLE8=Sherrie Austin - Streets Of Heaven
TTITLE9=Clint Daniels - The Letter
TTITLE10=Pat Green - Wave On Wave
TTITLE11=Wynonna - What The World Needs
TTITLE12=Deric Ruttan - When You Come Around
TTITLE13=Aaron Tippin - Where The Stars and Stripes and Eagle Fly
TTITLE14=Cledus T Judd - 270 Somethin
TTITLE15=James Monroe - Keeping it in Yhe Family
TTITLE16=Oakridge Boys - Absence of Love
TTITLE17=Patty Loveless - Lovin All Night
TTITLE18=Wynonna - Time
TTITLE19=Lloyd Knight - Hello Beer
TTITLE20=K C Powers - Id Have To Call it Love
TTITLE21=Jules Rancourt - Thats What You're All About
TTITLE22=Katy Benko - Walkin
EXTD=
EXTT0=
EXTT1=
EXTT2=
EXTT3=
EXTT4=
EXTT5=
EXTT6=
EXTT7=
EXTT8=
EXTT9=
EXTT10=
EXTT11=
EXTT12=
EXTT13=
EXTT14=
EXTT15=
EXTT16=
EXTT17=
EXTT18=
EXTT19=
EXTT20=
EXTT21=
EXTT22=
PLAYORDER=
